<svg width="82" height="73" viewBox="0 0 82 73" fill="none" xmlns="http://www.w3.org/2000/svg">
<path fill-rule="evenodd" clip-rule="evenodd" d="M51.4291 0.0181961L51.9381 0.0273688L78.395 0.504142L79.7516 0.52728L79.7502 0.528564L80.0163 0.53336L79.0746 1.38189L52.2638 25.5395L51.4291 26.2916V26.129L51.4232 26.1343L51.4232 0.0441286L51.4291 0.0442288V0.0181961ZM50.4056 1.25783V1.4992L50.4115 1.49359V27.5838H50.4056V27.6006H49.9056H25.1182H23.9061L24.7657 26.746L32.1658 19.3897L39.7883 11.6398L44.2143 7.41255L49.5531 2.10529L50.4056 1.25783ZM77.5973 4.7924L77.8798 4.88236L80.915 5.84866L81.9788 6.18733L81.7568 6.31856L81.7751 6.3251L81.5405 6.44647L81.0178 6.7555L70.3947 13.0365L69.9464 12.4446L69.6343 12.6061L69.8864 12.3653L69.7948 12.2445L77.3828 4.99722L77.5973 4.7924ZM37.2976 65.5748L49.4383 33.6868L50.4056 33.8647V72.0337V72.5458L50.4115 73L46.2051 70.6822L37.5351 66.1968L37.1388 65.9918L37.2976 65.5748ZM11.4599 28.5332H10.2597L11.1049 29.3853L30.2308 48.6673L38.7766 57.5392L38.8475 57.3544L38.9652 57.4731L39.2431 56.7528L49.8662 29.2132L50.1285 28.5332H49.3997H11.4599ZM9.43643 7.75771H8.93643V7.77456H8.93056V27.5838H8.93643V27.6006H9.43643H21.5772H21.7776L21.9225 27.4622L27.9929 21.6644L28.3572 21.3164L28.0065 20.9548L15.3599 7.90968L15.2126 7.75771H15.0009H9.43643ZM15.0009 8.97605L15.0009 8.97604V26.6006L15.0009 8.97605ZM7.91884 15.0218H7.91297V15.0387H7.41297H1.34259H0.0124512L1.01323 14.1625L7.08361 8.84782L7.91297 8.12171V8.26294L7.91884 8.25771V15.0218Z" fill="url(#paint0_linear_1_17)"/>
<defs>
<linearGradient id="paint0_linear_1_17" x1="0.012451" y1="36.335" x2="81.7429" y2="36.335" gradientUnits="userSpaceOnUse">
<stop stop-color="#1FC2FA"/>
<stop offset="0.510417" stop-color="#7F6FEA"/>
<stop offset="1" stop-color="#EA11D7"/>
</linearGradient>
</defs>
</svg>
